<svg xmlns="http://www.w3.org/2000/svg" viewBox="0 0 128 128" width="128" height="128">
  <defs>
    <linearGradient id="grad1" x1="0%" y1="0%" x2="100%" y2="100%">
      <stop offset="0%" style="stop-color:#4fbdba;stop-opacity:1" />
      <stop offset="100%" style="stop-color:#3da9a6;stop-opacity:1" />
    </linearGradient>
    <filter id="shadow" x="-20%" y="-20%" width="140%" height="140%">
      <feDropShadow dx="0" dy="4" stdDeviation="4" flood-color="#000" flood-opacity="0.3"/>
    </filter>
  </defs>
  <path fill="url(#grad1)" filter="url(#shadow)" d="M64 8L12 28v36c0 34 22 56 52 56s52-22 52-56V28L64 8zm0 108c-24 0-40-18-40-48V36l40-16 40 16v32c0 30-16 48-40 48z"/>
  <path fill="#1a1a2e" d="M56 72L42 58l-6 6 20 20 36-36-6-6-30 30z"/>
</svg>
